<?xml version="1.0" encoding="UTF-8"?>
<svg version="1.0" xmlns="http://www.w3.org/2000/svg"
 width="609.000000" height="640.000000" viewBox="0 0 609.000000 640.000000"
 preserveAspectRatio="xMidYMid meet">

<g transform="translate(0.000000,640.000000) scale(0.100000,-0.100000)"
fill="#ffffff" stroke="none">
<path d="M2666 6378 c4 -7 16 -23 27 -35 27 -31 20 -35 -33 -19 -67 20 -150
30 -150 18 0 -6 5 -14 10 -17 27 -16 2 -23 -88 -23 -74 0 -110 -5 -149 -21
-28 -11 -80 -27 -115 -36 -96 -24 -93 -22 -73 -45 18 -20 17 -20 -36 -22 -30
-1 -62 -2 -71 -1 -21 0 -23 -8 -5 -26 13 -13 -12 -10 -80 11 -39 11 -53 5 -46
-22 3 -11 3 -20 0 -20 -3 0 -42 15 -87 34 -84 36 -140 52 -140 41 0 -3 7 -19
15 -35 18 -35 13 -36 -35 -10 -112 61 -249 115 -271 108 -7 -2 25 -26 70 -53
85 -53 89 -64 15 -46 -51 13 -234 -1 -282 -21 l-27 -11 35 -7 c42 -8 33 -12
-73 -36 -42 -9 -85 -23 -95 -30 -15 -12 -11 -13 27 -14 l45 0 -45 -30 c-24
-16 -53 -36 -64 -43 -11 -8 -69 -45 -130 -82 -278 -173 -359 -233 -275 -204
66 23 63 4 -6 -43 -38 -26 -94 -65 -124 -86 -30 -20 -77 -49 -105 -63 -64 -34
-69 -49 -16 -49 23 0 41 -4 41 -10 0 -5 -4 -10 -8 -10 -14 0 -173 -163 -218
-223 -48 -64 -87 -157 -82 -196 3 -25 4 -25 26 13 13 21 24 37 27 35 2 -2 -1
-24 -6 -49 -17 -87 -22 -283 -10 -375 15 -113 39 -195 106 -365 51 -130 65
-186 100 -405 21 -127 38 -181 88 -278 57 -112 56 -112 153 98 110 240 255
452 302 443 15 -3 17 -14 14 -81 -2 -42 0 -77 5 -77 12 0 108 147 133 203 11
26 23 47 25 47 9 0 -8 -128 -26 -198 -10 -40 -39 -113 -64 -161 -30 -60 -40
-91 -32 -94 7 -2 38 1 70 8 31 6 57 9 58 6 1 -3 0 -16 -1 -28 -1 -17 6 -24 32
-31 27 -7 34 -14 36 -38 2 -16 15 -38 30 -50 25 -21 26 -23 13 -65 -7 -24 -26
-67 -42 -95 -16 -28 -29 -54 -29 -58 0 -12 36 -5 74 15 21 11 41 19 46 17 4
-2 -4 -31 -18 -65 -14 -35 -22 -66 -19 -70 4 -3 18 0 32 7 14 7 27 11 29 9 10
-11 -39 -174 -76 -252 -23 -48 -38 -90 -34 -94 4 -4 26 3 48 16 37 21 40 21
34 5 -16 -42 -27 -129 -21 -168 8 -47 60 -166 72 -166 4 0 17 27 27 59 28 87
32 89 40 21 9 -78 -8 -140 -77 -274 -29 -56 -53 -104 -55 -108 -7 -14 21 -8
40 9 16 14 18 14 18 1 0 -9 -29 -54 -65 -100 -36 -47 -65 -88 -65 -92 0 -12
22 -6 52 15 47 34 46 13 -3 -39 -24 -26 -55 -62 -68 -80 -12 -19 -43 -63 -68
-98 -49 -70 -50 -88 -4 -61 40 24 45 21 23 -10 -47 -68 -91 -166 -81 -183 7
-11 36 3 68 33 33 31 34 32 27 7 -3 -14 -19 -77 -36 -140 -35 -133 -38 -175
-13 -189 10 -5 27 -32 38 -60 17 -46 37 -64 47 -43 6 14 88 65 95 58 4 -3 -5
-61 -19 -129 -15 -67 -24 -125 -21 -129 2 -5 25 -8 50 -8 61 0 108 -45 118
-113 4 -26 11 -49 15 -52 4 -3 28 2 54 11 26 9 57 13 70 10 32 -8 103 -122
131 -211 6 -18 8 -18 33 12 34 41 91 83 112 83 27 0 57 -36 79 -97 12 -32 27
-69 33 -83 13 -27 58 -80 68 -80 4 0 15 18 26 40 10 22 22 40 25 40 3 0 16
-12 28 -26 26 -30 39 -23 57 28 10 30 11 29 49 -67 28 -71 50 -111 81 -143 59
-61 78 -56 81 23 1 33 2 64 2 69 1 4 21 -18 46 -50 119 -154 245 -254 321
-254 25 0 26 1 20 47 -6 47 -6 48 11 26 17 -20 48 -65 137 -198 39 -59 68 -66
77 -20 l6 30 10 -25 c16 -38 97 -120 119 -120 13 1 31 22 59 72 22 40 45 73
51 75 6 2 16 -8 22 -23 7 -14 18 -24 24 -22 12 4 62 97 92 172 15 35 18 38 31
25 11 -11 13 -26 6 -67 -4 -29 -5 -54 -2 -56 18 -10 162 88 226 153 27 28 52
51 55 51 3 0 4 -29 2 -65 -3 -51 -1 -65 10 -65 17 0 99 51 125 77 37 37 123
144 123 154 0 19 17 8 30 -18 l13 -28 14 35 c8 18 13 53 11 76 l-3 43 45 -7
c69 -11 131 -8 178 7 46 15 50 22 27 41 -32 27 -16 33 70 26 84 -7 97 -3 73
23 -11 10 -9 15 6 27 11 8 28 14 39 14 10 0 31 9 46 19 15 11 39 23 54 26 37
10 34 21 -8 36 -41 15 -43 22 -12 44 18 13 44 15 162 10 77 -4 151 -9 165 -11
21 -5 17 2 -28 46 -29 28 -51 54 -48 59 5 8 75 24 154 36 24 4 54 13 68 20 24
12 24 12 4 30 -25 22 -25 37 -2 58 14 13 38 17 91 17 71 0 73 1 66 23 -36 115
-59 237 -47 249 4 4 30 -11 59 -32 28 -22 59 -40 67 -40 18 0 36 57 36 113 0
46 15 48 30 3 6 -19 18 -40 26 -46 12 -10 14 -8 14 16 -1 52 -36 208 -62 272
-14 34 -24 62 -22 62 1 0 19 -9 38 -21 l36 -21 0 26 c0 28 -50 134 -81 175
-11 13 -18 26 -16 28 2 2 25 -9 51 -23 26 -14 49 -24 52 -21 12 12 -121 223
-177 282 -36 38 -37 47 -3 34 15 -5 29 -7 32 -5 3 3 -25 38 -62 77 -37 39 -65
73 -63 75 2 3 16 -1 31 -7 31 -14 45 -5 28 19 -44 63 -98 163 -119 219 -19 52
-23 83 -22 145 2 43 6 75 10 71 4 -5 18 -39 32 -78 13 -38 28 -70 33 -72 11
-3 55 179 54 222 0 17 -7 60 -14 98 -12 65 -10 77 10 58 5 -6 29 -13 53 -17
43 -7 43 -7 31 16 -7 13 -21 33 -32 44 -33 36 -55 78 -82 159 -26 77 -31 107
-20 107 3 0 19 -9 35 -21 31 -22 37 -16 16 16 -20 30 -50 115 -43 122 3 4 34
-3 69 -15 34 -12 65 -22 70 -22 15 0 6 22 -33 84 -54 86 -60 119 -26 151 14
13 26 33 26 45 0 12 7 20 18 20 32 0 64 30 58 55 -8 33 0 35 61 14 30 -10 59
-16 64 -14 4 3 -12 45 -36 93 -49 98 -70 178 -79 297 l-6 80 20 -51 c51 -129
165 -275 146 -187 -11 46 -9 124 2 135 15 15 55 -10 106 -69 60 -71 106 -149
172 -290 30 -65 63 -136 74 -158 10 -22 26 -57 34 -77 26 -67 56 -44 103 80
30 80 73 277 73 334 0 54 50 225 99 340 87 205 128 421 110 591 -5 53 -16 115
-24 138 -19 54 -11 62 21 21 28 -35 61 -45 49 -14 -4 9 -14 37 -23 62 -29 85
-170 274 -242 324 -41 29 -37 39 15 34 25 -2 45 0 45 3 0 9 -35 39 -47 39 -5
0 -81 47 -168 105 -150 99 -172 119 -109 95 40 -16 53 4 18 26 -16 9 -65 41
-109 69 -115 76 -244 153 -266 160 -23 7 -25 25 -4 25 46 0 -23 55 -82 66 -36
7 -45 24 -13 24 11 0 20 4 20 9 0 10 -59 25 -175 44 -69 12 -76 14 -47 20 56
11 35 24 -52 32 -111 9 -194 5 -235 -12 -19 -7 -36 -11 -38 -9 -5 4 60 56 70
56 4 0 27 15 53 33 30 21 40 33 30 35 -17 4 -125 -41 -166 -69 -14 -9 -53 -35
-87 -58 -71 -47 -81 -36 -23 24 43 43 48 55 25 55 -8 0 -15 -4 -15 -8 0 -4
-35 -18 -77 -32 -43 -13 -94 -31 -113 -40 -19 -10 -46 -21 -58 -25 -23 -7 -24
-7 -6 19 9 15 14 29 11 32 -3 3 -38 -1 -79 -9 -40 -9 -75 -13 -78 -11 -2 3 1
14 8 25 20 32 -2 52 -48 44 -53 -9 -132 -9 -159 0 -24 7 -24 7 7 21 18 7 32
17 32 22 0 5 -43 13 -96 17 -59 4 -92 10 -83 16 34 21 -86 32 -171 15 -45 -8
-45 -8 -26 12 31 36 15 41 -64 21 -84 -22 -100 -21 -75 5 33 32 1 34 -85 6
-47 -16 -88 -29 -92 -29 -4 -1 -5 13 -1 29 6 35 6 35 -67 15 -79 -21 -158 -19
-198 5 -46 28 -66 26 -60 -5 7 -34 -11 -33 -105 5 -81 32 -113 38 -101 18z
m-511 -1387 c89 -47 163 -185 182 -339 5 -49 4 -52 -21 -62 -15 -5 -29 -17
-32 -25 -10 -26 -42 -17 -60 16 -15 30 -17 31 -57 23 -149 -30 -269 32 -322
164 -19 46 -22 47 -79 31 -82 -23 -64 38 35 121 71 59 100 75 171 95 66 18
118 11 183 -24z m1994 3 c104 -47 214 -165 184 -195 -9 -9 -20 -9 -44 0 -47
16 -58 14 -71 -16 -60 -141 -212 -225 -322 -179 -54 22 -61 21 -86 -19 -25
-41 -44 -44 -71 -12 -37 42 -39 61 -18 148 27 115 82 201 172 269 30 22 109
40 157 34 25 -3 69 -16 99 -30z m-802 -1220 c37 -8 90 -27 116 -42 56 -30 119
-96 116 -120 -1 -9 6 -35 17 -57 28 -60 27 -214 -3 -275 -19 -41 -20 -45 -5
-57 16 -12 16 -14 1 -26 -22 -17 -33 -54 -30 -104 3 -47 -17 -83 -79 -141
l-35 -34 25 -19 c45 -34 50 -40 50 -54 0 -10 -10 -15 -30 -15 -35 0 -38 -13
-10 -58 25 -41 25 -52 1 -52 -30 0 -35 -19 -12 -44 22 -24 28 -42 10 -30 -16
10 -30 -17 -16 -30 7 -7 27 -22 45 -35 41 -28 32 -45 -19 -36 -39 7 -45 3 -39
-34 1 -10 -5 -12 -22 -7 -67 21 -68 21 -68 -18 0 -21 -5 -47 -11 -59 -10 -17
-9 -23 6 -32 10 -5 39 -31 63 -57 48 -51 72 -60 72 -29 0 29 15 33 43 11 14
-11 31 -20 39 -20 20 -1 46 -24 84 -76 l36 -49 -7 63 c-4 36 -3 62 2 62 16 0
92 -143 99 -186 8 -50 -5 -77 -45 -94 -39 -16 -65 -7 -58 21 3 11 2 19 -1 17
-4 -2 -42 -21 -84 -43 -90 -46 -110 -41 -82 18 15 32 16 41 4 76 -11 35 -17
40 -52 46 -28 5 -44 3 -56 -8 -20 -18 -113 -38 -162 -36 -19 1 -62 -8 -96 -21
l-61 -23 -31 23 c-31 23 -32 23 -52 5 -22 -20 -67 -17 -124 10 -28 14 -37 14
-55 3 -17 -10 -25 -10 -48 3 -50 29 -82 31 -126 11 -23 -11 -62 -24 -86 -28
l-44 -9 46 -51 c70 -77 37 -86 -99 -27 -142 61 -174 122 -116 214 32 49 59 76
82 81 18 4 79 96 80 121 0 20 -13 22 -32 4 -20 -20 -37 -9 -44 29 -4 24 -12
34 -25 34 -18 0 -18 1 1 38 l20 37 -20 3 c-25 4 -25 5 5 50 29 43 31 52 10 52
-17 0 -20 -5 45 99 43 67 47 81 28 81 -7 0 -20 5 -28 10 -13 8 -10 14 14 33
l30 24 -28 58 c-38 80 -41 108 -21 161 17 44 16 46 -4 94 -12 27 -21 62 -21
78 0 17 -6 32 -14 35 -27 11 -39 82 -25 160 14 86 38 144 72 176 36 33 48 24
30 -24 -38 -101 -50 -143 -55 -188 -5 -40 -3 -46 8 -36 8 6 14 18 14 26 0 42
114 208 195 283 26 25 29 25 250 30 123 3 227 8 231 13 13 12 120 8 191 -9z
m-1032 -1446 c-13 -39 -11 -252 2 -298 15 -55 6 -68 -37 -50 -46 19 -64 62
-64 150 0 61 5 86 27 135 31 66 55 97 69 89 5 -3 6 -15 3 -26z"/>
<path d="M2100 4905 c-10 -12 -10 -18 0 -30 7 -8 18 -15 25 -15 7 0 18 7 25
15 10 12 10 18 0 30 -7 8 -18 15 -25 15 -7 0 -18 -7 -25 -15z"/>
<path d="M3954 4905 c-7 -18 2 -45 15 -45 17 0 40 30 35 45 -8 19 -43 19 -50
0z"/>
<path d="M3105 3740 c-8 -13 15 -24 27 -12 6 6 4 11 -6 15 -8 3 -18 2 -21 -3z"/>
<path d="M3100 3685 c-7 -9 -8 -15 -2 -15 5 0 12 7 16 15 3 8 4 15 2 15 -2 0
-9 -7 -16 -15z"/>
<path d="M2997 3632 c-75 -34 -85 -57 -20 -47 27 4 54 10 60 14 7 4 59 3 115
-1 85 -7 117 -15 185 -44 46 -20 88 -43 94 -50 23 -28 39 -16 39 31 0 34 -4
47 -17 52 -10 4 -28 14 -41 24 -37 29 -154 50 -262 48 -80 -2 -108 -7 -153
-27z"/>
<path d="M3226 3216 c13 -40 44 -74 85 -90 56 -23 101 -12 150 34 46 44 54 72
12 45 -43 -29 -136 -26 -201 6 -51 25 -52 26 -46 5z"/>
<path d="M2574 3161 c29 -55 113 -87 162 -61 33 18 30 30 -9 30 -18 0 -59 13
-92 30 -75 37 -79 37 -61 1z"/>
<path d="M2936 2553 c-36 -37 -66 -71 -66 -75 0 -35 101 44 131 103 10 21 15
39 11 39 -5 0 -39 -30 -76 -67z"/>
<path d="M3100 2571 c1 -16 34 -45 87 -77 128 -78 175 -93 116 -37 -64 60 -81
73 -95 73 -8 0 -36 11 -61 24 -26 13 -47 21 -47 17z"/>
<path d="M2681 2395 c-18 -11 -51 -37 -72 -57 -22 -20 -48 -39 -58 -43 -11 -3
-22 -13 -26 -22 -5 -15 -4 -15 12 -1 10 8 38 25 63 37 51 26 124 86 119 98 -2
5 -19 0 -38 -12z"/>
</g>
</svg>
